<svg width="200" height="200" viewBox="0 0 200 200" fill="none" xmlns="http://www.w3.org/2000/svg">
<rect width="200" height="200" rx="30" fill="#5AAF58"/>
<rect width="200" height="200" rx="30" stroke="black"/>
<path d="M48.8228 29.4489H41.7205C41.6258 28.7197 41.4317 28.0616 41.1381 27.4744C40.8446 26.8873 40.4563 26.3854 39.9734 25.9688C39.4904 25.5521 38.9175 25.2348 38.2546 25.017C37.6012 24.7898 36.8768 24.6761 36.0813 24.6761C34.6703 24.6761 33.4535 25.0218 32.4308 25.7131C31.4175 26.4044 30.6362 27.4034 30.087 28.7102C29.5472 30.017 29.2773 31.5985 29.2773 33.4545C29.2773 35.3864 29.552 37.0057 30.1012 38.3125C30.6599 39.6098 31.4412 40.59 32.445 41.2528C33.4582 41.9062 34.6561 42.233 36.0387 42.233C36.8152 42.233 37.5207 42.1335 38.1552 41.9347C38.7991 41.7358 39.3626 41.447 39.8455 41.0682C40.338 40.6799 40.7404 40.2112 41.0529 39.6619C41.3749 39.1032 41.5974 38.4735 41.7205 37.7727L48.8228 37.8153C48.6997 39.1032 48.3256 40.3722 47.7006 41.6222C47.0851 42.8722 46.2376 44.0133 45.158 45.0455C44.0785 46.0682 42.7622 46.8826 41.2092 47.4886C39.6656 48.0947 37.8948 48.3977 35.8967 48.3977C33.2641 48.3977 30.9061 47.8201 28.8228 46.6648C26.7489 45.5 25.1107 43.8049 23.908 41.5795C22.7054 39.3542 22.104 36.6458 22.104 33.4545C22.104 30.2538 22.7148 27.5407 23.9364 25.3153C25.158 23.09 26.8105 21.3996 28.8938 20.2443C30.9772 19.089 33.3114 18.5114 35.8967 18.5114C37.658 18.5114 39.2868 18.7576 40.783 19.25C42.2792 19.733 43.5955 20.4432 44.7319 21.3807C45.8683 22.3087 46.7915 23.4498 47.5018 24.804C48.212 26.1581 48.6523 27.7064 48.8228 29.4489ZM63.0309 48.4119C60.7392 48.4119 58.7695 47.9432 57.1218 47.0057C55.4835 46.0587 54.2193 44.7424 53.3292 43.0568C52.4485 41.3617 52.0082 39.3968 52.0082 37.1619C52.0082 34.9176 52.4485 32.9527 53.3292 31.267C54.2193 29.572 55.4835 28.2557 57.1218 27.3182C58.7695 26.3712 60.7392 25.8977 63.0309 25.8977C65.3226 25.8977 67.2875 26.3712 68.9258 27.3182C70.5735 28.2557 71.8377 29.572 72.7184 31.267C73.6085 32.9527 74.0536 34.9176 74.0536 37.1619C74.0536 39.3968 73.6085 41.3617 72.7184 43.0568C71.8377 44.7424 70.5735 46.0587 68.9258 47.0057C67.2875 47.9432 65.3226 48.4119 63.0309 48.4119ZM63.0735 43.1705C63.9068 43.1705 64.6123 42.9148 65.19 42.4034C65.7676 41.892 66.208 41.1818 66.511 40.2727C66.8235 39.3636 66.9798 38.3125 66.9798 37.1193C66.9798 35.9072 66.8235 34.8466 66.511 33.9375C66.208 33.0284 65.7676 32.3182 65.19 31.8068C64.6123 31.2955 63.9068 31.0398 63.0735 31.0398C62.2118 31.0398 61.4826 31.2955 60.886 31.8068C60.2989 32.3182 59.8491 33.0284 59.5366 33.9375C59.2335 34.8466 59.082 35.9072 59.082 37.1193C59.082 38.3125 59.2335 39.3636 59.5366 40.2727C59.8491 41.1818 60.2989 41.892 60.886 42.4034C61.4826 42.9148 62.2118 43.1705 63.0735 43.1705ZM84.5579 35.5568V48H77.6119V26.1818H84.217V30.1875H84.4585C84.9414 28.8523 85.7653 27.8059 86.93 27.0483C88.0948 26.2812 89.4821 25.8977 91.092 25.8977C92.6261 25.8977 93.9566 26.2434 95.0835 26.9347C96.2198 27.6165 97.1005 28.5729 97.7255 29.804C98.36 31.0256 98.6725 32.4555 98.663 34.0938V48H91.717V35.4574C91.7264 34.2453 91.4187 33.2983 90.7937 32.6165C90.1781 31.9347 89.3211 31.5938 88.2227 31.5938C87.4935 31.5938 86.8496 31.7547 86.2908 32.0767C85.7416 32.3892 85.3155 32.839 85.0124 33.4261C84.7189 34.0133 84.5674 34.7235 84.5579 35.5568ZM115.279 26.1818V31.2955H101.515V26.1818H115.279ZM104.398 20.9545H111.344V41.1392C111.344 41.5653 111.41 41.911 111.543 42.1761C111.685 42.4318 111.889 42.6165 112.154 42.7301C112.419 42.8343 112.736 42.8864 113.105 42.8864C113.371 42.8864 113.65 42.8627 113.944 42.8153C114.247 42.7585 114.474 42.7112 114.625 42.6733L115.676 47.6875C115.345 47.7822 114.876 47.9006 114.27 48.0426C113.674 48.1847 112.959 48.2746 112.125 48.3125C110.497 48.3883 109.1 48.1989 107.935 47.7443C106.78 47.2803 105.894 46.5606 105.279 45.5852C104.673 44.6098 104.379 43.3835 104.398 41.9062V20.9545ZM124.973 48.3693C123.581 48.3693 122.346 48.1373 121.266 47.6733C120.196 47.1998 119.348 46.4896 118.723 45.5426C118.108 44.5862 117.8 43.3883 117.8 41.9489C117.8 40.7367 118.013 39.714 118.439 38.8807C118.865 38.0473 119.453 37.3703 120.201 36.8494C120.949 36.3286 121.81 35.9356 122.786 35.6705C123.761 35.3958 124.803 35.2112 125.911 35.1165C127.151 35.0028 128.15 34.8845 128.908 34.7614C129.666 34.6288 130.215 34.4441 130.556 34.2074C130.906 33.9612 131.081 33.6155 131.081 33.1705V33.0994C131.081 32.3703 130.83 31.8068 130.328 31.4091C129.827 31.0114 129.15 30.8125 128.297 30.8125C127.379 30.8125 126.64 31.0114 126.081 31.4091C125.523 31.8068 125.167 32.3561 125.016 33.0568L118.61 32.8295C118.799 31.5038 119.287 30.3201 120.073 29.2784C120.868 28.2273 121.957 27.4034 123.34 26.8068C124.732 26.2008 126.403 25.8977 128.354 25.8977C129.746 25.8977 131.029 26.0634 132.203 26.3949C133.378 26.7169 134.4 27.1903 135.272 27.8153C136.143 28.4309 136.815 29.1884 137.289 30.0881C137.772 30.9877 138.013 32.0152 138.013 33.1705V48H131.479V44.9602H131.309C130.92 45.6989 130.423 46.3239 129.817 46.8352C129.221 47.3466 128.515 47.7301 127.701 47.9858C126.896 48.2415 125.987 48.3693 124.973 48.3693ZM127.118 43.8239C127.866 43.8239 128.539 43.6723 129.135 43.3693C129.741 43.0663 130.224 42.6496 130.584 42.1193C130.944 41.5795 131.124 40.9545 131.124 40.2443V38.1705C130.925 38.2746 130.684 38.3693 130.4 38.4545C130.125 38.5398 129.822 38.6203 129.49 38.696C129.159 38.7718 128.818 38.8381 128.468 38.8949C128.117 38.9517 127.781 39.0038 127.459 39.0511C126.806 39.1553 126.247 39.3163 125.783 39.5341C125.328 39.7519 124.978 40.036 124.732 40.3864C124.495 40.7273 124.377 41.1345 124.377 41.608C124.377 42.3277 124.632 42.8769 125.144 43.2557C125.665 43.6345 126.323 43.8239 127.118 43.8239ZM152.445 48.4119C150.144 48.4119 148.169 47.9384 146.522 46.9915C144.883 46.0445 143.624 44.7282 142.743 43.0426C141.863 41.3475 141.422 39.3873 141.422 37.1619C141.422 34.9271 141.863 32.9669 142.743 31.2812C143.633 29.5862 144.898 28.2652 146.536 27.3182C148.184 26.3712 150.149 25.8977 152.431 25.8977C154.448 25.8977 156.204 26.2623 157.701 26.9915C159.206 27.7206 160.381 28.7528 161.223 30.0881C162.076 31.4138 162.525 32.9716 162.573 34.7614H156.081C155.949 33.6439 155.57 32.768 154.945 32.1335C154.329 31.4991 153.525 31.1818 152.53 31.1818C151.725 31.1818 151.02 31.4091 150.414 31.8636C149.808 32.3087 149.334 32.9716 148.993 33.8523C148.662 34.7235 148.496 35.803 148.496 37.0909C148.496 38.3788 148.662 39.4678 148.993 40.358C149.334 41.2386 149.808 41.9062 150.414 42.3608C151.02 42.8059 151.725 43.0284 152.53 43.0284C153.174 43.0284 153.742 42.8911 154.235 42.6165C154.737 42.3419 155.149 41.9394 155.471 41.4091C155.792 40.8693 155.996 40.2159 156.081 39.4489H162.573C162.507 41.2481 162.057 42.8201 161.223 44.1648C160.4 45.5095 159.239 46.5559 157.743 47.304C156.257 48.0426 154.49 48.4119 152.445 48.4119ZM178.443 26.1818V31.2955H164.679V26.1818H178.443ZM167.562 20.9545H174.508V41.1392C174.508 41.5653 174.574 41.911 174.707 42.1761C174.849 42.4318 175.053 42.6165 175.318 42.7301C175.583 42.8343 175.9 42.8864 176.27 42.8864C176.535 42.8864 176.814 42.8627 177.108 42.8153C177.411 42.7585 177.638 42.7112 177.789 42.6733L178.841 47.6875C178.509 47.7822 178.04 47.9006 177.434 48.0426C176.838 48.1847 176.123 48.2746 175.289 48.3125C173.661 48.3883 172.264 48.1989 171.099 47.7443C169.944 47.2803 169.058 46.5606 168.443 45.5852C167.837 44.6098 167.543 43.3835 167.562 41.9062V20.9545Z" fill="white"/>
<path d="M46.7689 164.945C45.109 164.945 43.5568 164.509 42.231 163.742L81.3385 129.66L84.9888 132.836C88.0441 135.491 91.8682 136.835 95.6567 136.835C99.4637 136.835 103.288 135.491 106.343 132.836L109.992 129.66L123.231 141.202C124.729 138.678 126.589 136.405 128.747 134.441L116.627 123.881L153.712 91.5269V127.269C157.16 127.898 160.394 129.131 163.313 130.855V87.1096C163.313 85.8709 163.192 84.6453 162.965 83.4592C162.354 80.3866 160.992 77.5749 159.09 75.2521C158.688 74.7458 158.269 74.2927 157.813 73.8396C154.445 70.4517 149.712 68.3384 144.544 68.3384H46.7689C41.6004 68.3384 36.8869 70.4517 33.499 73.8396C33.0456 74.2927 32.6266 74.7458 32.2244 75.2521C30.3209 77.5749 28.9593 80.3866 28.3665 83.4592C28.1209 84.6453 28 85.8709 28 87.1096V155.78C28 158.415 28.5588 160.947 29.5542 163.234C30.4775 165.417 31.841 167.392 33.499 169.048C33.9183 169.467 34.3374 169.852 34.7908 170.236C38.0389 172.925 42.231 174.549 46.7689 174.549H125.654C123.371 171.728 121.594 168.484 120.476 164.945H46.7689V164.945ZM40.2898 80.6304C41.9666 78.9553 44.2197 77.9414 46.7689 77.9414H144.544C147.094 77.9414 149.365 78.9556 151.023 80.6304C151.318 80.9288 151.598 81.2613 151.845 81.5917L100.598 126.255C99.1841 127.494 97.4373 128.106 95.6567 128.106C93.8929 128.106 92.1478 127.494 90.7145 126.255L39.4891 81.5729C39.7157 81.2424 39.9953 80.9288 40.2898 80.6304ZM37.6008 155.78V91.5097L74.6875 123.862L37.6196 156.181C37.6007 156.058 37.6008 155.92 37.6008 155.78Z" fill="black"/>
<path d="M148.455 132.574C135.452 132.574 124.914 143.115 124.914 156.118C124.914 169.12 135.452 179.661 148.455 179.661C161.461 179.661 172 169.12 172 156.118C172 143.115 161.461 132.574 148.455 132.574ZM152.096 167.379H146.378V151.51H146.31L142.163 153.469L141.298 148.457L147.107 145.802H152.096L152.096 167.379Z" fill="black"/>
</svg>
