<svg width="430" height="200" viewBox="0 0 430 200" fill="none" xmlns="http://www.w3.org/2000/svg">
<rect width="430" height="200" rx="30" fill="#4A9AB3"/>
<rect width="430" height="200" rx="30" stroke="black"/>
<path d="M130.585 123V76.4545H141.835V113.864H161.199V123H130.585ZM183.318 123.659C179.652 123.659 176.5 122.909 173.864 121.409C171.242 119.894 169.22 117.788 167.795 115.091C166.386 112.379 165.682 109.235 165.682 105.659C165.682 102.068 166.386 98.9242 167.795 96.2273C169.22 93.5152 171.242 91.4091 173.864 89.9091C176.5 88.3939 179.652 87.6364 183.318 87.6364C186.985 87.6364 190.129 88.3939 192.75 89.9091C195.386 91.4091 197.409 93.5152 198.818 96.2273C200.242 98.9242 200.955 102.068 200.955 105.659C200.955 109.235 200.242 112.379 198.818 115.091C197.409 117.788 195.386 119.894 192.75 121.409C190.129 122.909 186.985 123.659 183.318 123.659ZM183.386 115.273C184.72 115.273 185.848 114.864 186.773 114.045C187.697 113.227 188.402 112.091 188.886 110.636C189.386 109.182 189.636 107.5 189.636 105.591C189.636 103.652 189.386 101.955 188.886 100.5C188.402 99.0455 187.697 97.9091 186.773 97.0909C185.848 96.2727 184.72 95.8636 183.386 95.8636C182.008 95.8636 180.841 96.2727 179.886 97.0909C178.947 97.9091 178.227 99.0455 177.727 100.5C177.242 101.955 177 103.652 177 105.591C177 107.5 177.242 109.182 177.727 110.636C178.227 112.091 178.947 113.227 179.886 114.045C180.841 114.864 182.008 115.273 183.386 115.273ZM222.92 136.818C219.602 136.818 216.761 136.356 214.398 135.432C212.034 134.508 210.178 133.242 208.83 131.636C207.481 130.03 206.67 128.212 206.398 126.182L216.92 125.591C217.117 126.303 217.481 126.924 218.011 127.455C218.557 127.985 219.261 128.394 220.125 128.682C221.004 128.97 222.034 129.114 223.216 129.114C225.08 129.114 226.617 128.659 227.83 127.75C229.057 126.856 229.67 125.288 229.67 123.045V116.909H229.284C228.845 117.985 228.178 118.947 227.284 119.795C226.39 120.644 225.277 121.311 223.943 121.795C222.625 122.28 221.11 122.523 219.398 122.523C216.852 122.523 214.519 121.932 212.398 120.75C210.292 119.553 208.602 117.705 207.33 115.205C206.072 112.689 205.443 109.455 205.443 105.5C205.443 101.424 206.095 98.0682 207.398 95.4318C208.701 92.7803 210.405 90.8182 212.511 89.5455C214.633 88.2727 216.913 87.6364 219.352 87.6364C221.186 87.6364 222.754 87.9545 224.057 88.5909C225.375 89.2121 226.458 90.0152 227.307 91C228.155 91.9848 228.799 93.0076 229.239 94.0682H229.557V88.0909H240.625V123.136C240.625 126.091 239.883 128.583 238.398 130.614C236.913 132.644 234.837 134.182 232.17 135.227C229.504 136.288 226.42 136.818 222.92 136.818ZM223.261 114.432C224.61 114.432 225.761 114.076 226.716 113.364C227.67 112.652 228.405 111.629 228.92 110.295C229.436 108.962 229.693 107.364 229.693 105.5C229.693 103.606 229.436 101.977 228.92 100.614C228.42 99.2348 227.686 98.1742 226.716 97.4318C225.761 96.6894 224.61 96.3182 223.261 96.3182C221.883 96.3182 220.716 96.697 219.761 97.4545C218.807 98.2121 218.08 99.2803 217.58 100.659C217.095 102.023 216.852 103.636 216.852 105.5C216.852 107.364 217.102 108.962 217.602 110.295C218.102 111.629 218.822 112.652 219.761 113.364C220.716 114.076 221.883 114.432 223.261 114.432ZM247.71 123V88.0909H258.824V123H247.71ZM253.278 84.0227C251.718 84.0227 250.377 83.5076 249.256 82.4773C248.134 81.4318 247.574 80.1742 247.574 78.7045C247.574 77.25 248.134 76.0076 249.256 74.9773C250.377 73.9318 251.718 73.4091 253.278 73.4091C254.854 73.4091 256.195 73.9318 257.301 74.9773C258.422 76.0076 258.983 77.25 258.983 78.7045C258.983 80.1742 258.422 81.4318 257.301 82.4773C256.195 83.5076 254.854 84.0227 253.278 84.0227ZM277.011 103.091V123H265.898V88.0909H276.466V94.5H276.852C277.625 92.3636 278.943 90.6894 280.807 89.4773C282.67 88.25 284.89 87.6364 287.466 87.6364C289.92 87.6364 292.049 88.1894 293.852 89.2955C295.67 90.3864 297.08 91.9167 298.08 93.8864C299.095 95.8409 299.595 98.1288 299.58 100.75V123H288.466V102.932C288.481 100.992 287.989 99.4773 286.989 98.3864C286.004 97.2955 284.633 96.75 282.875 96.75C281.708 96.75 280.678 97.0076 279.784 97.5227C278.905 98.0227 278.223 98.7424 277.739 99.6818C277.269 100.621 277.027 101.758 277.011 103.091Z" fill="white"/>
</svg>
